<svg width="332" height="512"><desc>wmf2svg</desc><polygon points="30.54 502.384 .113 505.552 22.426 511.208 178.396 510.529 327.154 510.529 331.887 507.136 282.978 504.873 248.267 501.479 205.669 504.873 179.298 504.873 149.547 500.801 30.54 502.384 30.54 502.384" style="fill-opacity:1;fill-rule:evenodd;fill:#a9a9a9;stroke:none"/><polygon points="122.049 150.116 118.668 145.365 111.456 144.46 107.849 149.437 109.427 190.614 109.878 215.502 129.261 229.303 179.298 236.316 201.386 458.945 198.005 484.737 186.285 495.597 174.565 500.122 177.72 507.588 206.57 504.647 229.785 494.918 284.781 503.063 303.037 496.502 272.159 491.977 259.086 479.307 221.221 490.846 213.107 479.76 246.464 421.388 262.016 234.28 308.672 179.528 287.936 139.935 253.001 121.156 261.115 92.649 273.286 88.124 280.273 74.775 281.4 48.983 266.75 29.752 260.664 10.294 255.029 4.186 234.744 3.281 222.122 1.697 211.98 3.733 203.415 10.294 194.85 12.331 192.371 20.023 190.342 34.729 191.244 39.707 195.301 43.779 195.977 51.471 200.034 57.128 209.5 60.521 217.614 72.739 222.122 91.065 222.122 108.486 212.656 108.486 205.443 113.011 178.171 135.41 154.956 203.284 134.671 199.438 124.077 170.252 122.049 150.116 122.049 150.116" style="fill-opacity:1;fill-rule:evenodd;fill:#fff;stroke:none"/><polygon points="205.218 482.248 223.475 482.248 223.024 487.452 211.98 492.203 205.218 482.248 205.218 482.248" style="fill-opacity:1;fill-rule:evenodd;fill:#a9a9a9;stroke:none"/><polygon points="234.293 479.76 232.49 485.868 244.21 487.678 251.198 479.307 234.293 479.76 234.293 479.76" style="fill-opacity:1;fill-rule:evenodd;fill:#a9a9a9;stroke:none"/><polygon points="179.298 502.158 184.707 499.217 194.85 500.122 194.174 497.859 204.316 496.954 202.062 490.62 196.653 491.072 188.99 495.597 198.231 484.511 209.05 486.547 212.881 491.977 227.306 487.452 229.109 503.063 220.544 505.099 219.868 508.719 204.542 511.434 175.692 506.683 179.298 502.158 179.298 502.158" style="fill-opacity:1;fill-rule:evenodd;fill:#696969;stroke:none"/><polygon points="231.814 487.678 244.661 488.357 252.325 478.402 259.988 479.76 251.423 491.751 259.537 490.393 262.693 496.049 269.68 496.502 279.146 499.217 309.348 496.276 301.46 506.457 278.695 508.719 262.693 504.194 253.001 506.457 231.814 504.421 228.208 491.072 231.814 487.678 231.814 487.678" style="fill-opacity:1;fill-rule:evenodd;fill:#696969;stroke:none"/><polygon points="113.033 451.252 106.497 441.75 106.046 421.84 108.976 416.184 122.725 411.206 139.179 419.804 141.883 428.854 137.375 440.166 136.699 452.384 144.813 456.909 161.943 469.126 163.07 488.81 155.407 504.647 29.188 505.552 55.784 498.086 66.603 485.416 84.634 480.212 99.961 470.483 110.554 468.673 111.456 456.909 113.033 451.252 113.033 451.252" style="fill-opacity:1;fill-rule:evenodd;fill:#fffacd;stroke:none"/><polygon points="126.106 419.351 127.684 414.148 139.179 420.709 142.785 427.949 135.798 441.75 136.699 453.741 133.318 454.872 123.176 454.872 118.668 440.166 124.077 433.605 117.09 423.424 129.712 427.949 126.106 419.351 126.106 419.351" style="fill-opacity:1;fill-rule:evenodd;fill:khaki;stroke:none"/><polygon points="130.163 463.47 136.248 470.031 137.826 475.235 144.363 477.723 143.912 471.162 138.728 459.397 152.927 467.09 149.321 458.492 161.041 469.126 162.619 485.416 156.984 502.611 110.554 506.231 51.276 506.231 68.631 500.122 74.041 493.561 86.663 492.429 102.891 481.343 104.919 485.868 99.284 495.597 113.935 483.832 114.611 477.723 122.725 477.271 122.725 481.343 124.528 485.868 124.077 491.524 121.147 498.538 129.712 490.393 130.614 479.76 122.725 468.673 130.163 463.47 130.163 463.47" style="fill-opacity:1;fill-rule:evenodd;fill:khaki;stroke:none"/><polygon points="119.57 148.08 111.906 150.116 110.554 192.65 115.513 415.279 126.557 413.243 123.627 159.166 119.57 148.08 119.57 148.08" style="fill-opacity:1;fill-rule:evenodd;fill:tan;stroke:none"/><polygon points="147.969 212.787 144.813 226.135 141.883 229.755 135.798 230.66 134.445 235.411 145.039 243.783 154.28 238.353 147.969 212.787 147.969 212.787" style="fill-opacity:1;fill-rule:evenodd;fill:#a9a9a9;stroke:none"/><polygon points="127.458 167.537 130.614 182.922 138.728 190.388 143.01 196.27 148.42 202.379 148.645 215.049 143.01 230.434 136.023 231.339 126.557 235.411 115.738 233.375 107.173 222.289 101.989 214.597 101.989 205.32 97.031 195.592 97.031 189.935 108.3 182.243 110.103 190.162 123.176 191.972 125.204 170.704 125.881 166.179 127.458 167.537 127.458 167.537" style="fill-opacity:1;fill-rule:evenodd;fill:#ffe4e1;stroke:none"/><polygon points="199.809 401.025 195.526 479.986 206.345 480.891 210.402 442.881 199.809 401.025 199.809 401.025" style="fill-opacity:1;fill-rule:evenodd;fill:#ffe4e1;stroke:none"/><polygon points="147.293 199.212 154.73 194.234 160.365 132.468 176.819 123.418 202.288 118.441 211.98 110.296 225.954 136.541 257.959 213.239 276.667 182.696 277.568 139.935 281.625 134.052 298.079 144.007 317.688 174.551 324.224 198.307 288.162 232.923 220.995 270.027 197.329 396.726 176.819 405.098 166.225 357.359 166.225 320.255 179.298 240.389 147.293 199.212 147.293 199.212" style="fill-opacity:1;fill-rule:evenodd;fill:#d3d3d3;stroke:none"/><polygon points="193.272 239.484 274.413 236.316 284.105 257.584 285.682 279.077 279.146 306.227 262.918 360.527 253.001 412.338 257.959 475.008 241.506 476.592 226.855 481.57 200.485 480.891 204.767 456.909 204.767 406.681 198.005 389.26 188.314 291.295 187.412 256.905 193.272 239.484 193.272 239.484" style="fill-opacity:1;fill-rule:evenodd;fill:#bc8f8f;stroke:none"/><polygon points="177.72 241.068 177.72 260.072 171.86 334.282 178.396 405.098 193.948 399.215 193.948 351.477 186.736 279.756 187.412 258.489 190.793 244.461 177.72 241.068 177.72 241.068" style="fill-opacity:1;fill-rule:evenodd;fill:#696969;stroke:none"/><polygon points="228.884 133.373 241.957 146.043 251.874 162.559 260.889 184.732 257.058 193.329 258.41 198.307 268.553 181.791 271.483 172.514 270.581 158.034 271.933 140.613 278.695 159.618 281.625 174.098 282.527 192.198 280.048 223.873 279.146 245.366 264.045 255.095 257.508 241.068 237.9 258.941 225.503 247.855 234.068 229.303 239.928 184.279 235.42 160.071 228.884 133.373 228.884 133.373" style="fill-opacity:1;fill-rule:evenodd;fill:silver;stroke:none"/><polygon points="234.519 135.41 247.366 132.016 259.988 132.016 267.426 144.912 267.426 161.202 260.439 183.148 249.394 154.641 234.519 135.41 234.519 135.41" style="fill-opacity:1;fill-rule:evenodd;fill:#fff;stroke:none"/><polygon points="237.449 140.387 244.887 134.505 248.042 136.541 258.41 134.957 264.496 143.555 266.073 167.989 270.581 135.862 257.058 126.36 239.026 125.907 225.954 130.885 237.449 140.387 237.449 140.387" style="fill-opacity:1;fill-rule:evenodd;fill:#a9a9a9;stroke:none"/><polygon points="148.194 203.284 156.759 201.7 170.733 206.904 161.718 192.198 163.746 172.741 165.775 139.482 174.339 135.862 185.384 143.555 181.777 129.527 198.005 128.848 204.993 121.835 208.824 141.066 224.827 176.587 227.982 204.415 233.843 180.207 223.925 150.116 222.798 128.848 231.814 149.437 241.506 181.564 237.449 215.728 233.392 230.886 224.827 247.855 211.303 260.977 186.961 241.068 159.238 242.425 152.251 228.398 148.194 203.284 148.194 203.284" style="fill-opacity:1;fill-rule:evenodd;fill:gray;stroke:none"/><polygon points="271.933 119.346 290.641 137.446 292.669 144.46 285.457 139.935 282.076 160.071 270.581 133.826 271.933 129.527 269.905 122.513 271.933 119.346 271.933 119.346" style="fill-opacity:1;fill-rule:evenodd;fill:gray;stroke:none"/><polygon points="301.234 153.509 306.193 173.646 312.053 183.827 317.237 183.827 321.745 199.664 311.151 220.253 296.501 227.493 290.19 251.928 285.006 256.905 275.089 237.448 280.498 220.932 298.53 181.791 301.234 153.509 301.234 153.509" style="fill-opacity:1;fill-rule:evenodd;fill:gray;stroke:none"/><polygon points="216.713 113.69 224.376 121.835 228.433 119.572 223.925 109.617 241.957 118.215 246.464 122.966 252.099 122.061 249.394 117.084 255.48 118.667 266.073 115.726 270.807 116.631 271.483 133.147 255.029 126.36 239.928 128.848 236.998 125.907 221.221 128.17 217.614 121.608 214.008 113.69 216.713 113.69 216.713 113.69" style="fill-opacity:1;fill-rule:evenodd;fill:#cd5c5c;stroke:none"/><polygon points="205.669 42.195 200.936 41.969 199.809 47.173 200.259 55.091 208.599 59.616 216.713 72.965 225.954 87.445 227.081 98.531 227.757 110.749 238.576 117.084 244.887 115.726 253.902 117.084 261.115 93.78 241.28 83.146 231.138 70.476 246.239 81.336 260.889 84.956 270.356 79.979 278.019 68.44 279.597 52.15 269.454 30.204 272.159 22.964 264.946 23.417 262.467 17.534 251.874 9.616 241.731 9.389 228.884 7.353 220.995 13.688 216.037 22.059 215.586 29.978 223.925 37.67 223.925 42.195 216.487 44.684 214.008 51.245 208.824 51.019 205.669 42.195 205.669 42.195" style="fill-opacity:1;fill-rule:evenodd;fill:#ffe4e1;stroke:none"/><polygon points="193.272 42.195 190.342 35.182 195.977 24.322 196.202 33.372 198.682 28.168 202.739 18.892 202.964 30.204 204.993 20.249 210.402 11.878 220.094 7.579 212.656 23.417 210.853 37.444 212.205 48.53 219.192 52.376 212.43 53.734 208.824 53.96 205.443 45.589 205.669 38.349 200.259 38.349 195.977 45.363 193.272 42.195 193.272 42.195" style="fill-opacity:1;fill-rule:evenodd;fill:#a9a9a9;stroke:none"/><polygon points="244.887 5.769 252.55 7.579 262.693 17.534 262.693 10.294 257.508 5.769 244.887 5.769 244.887 5.769" style="fill-opacity:1;fill-rule:evenodd;fill:#a9a9a9;stroke:none"/><polygon points="232.49 38.349 228.659 34.729 229.785 30.883 234.744 28.62 239.252 29.299 244.887 32.693 243.534 35.86 241.055 37.897 235.42 39.707 232.49 38.349 232.49 38.349" style="fill-opacity:1;fill-rule:evenodd;fill:#fff;stroke:none"/><polygon points="239.703 44.458 250.296 41.29 253.677 39.933 260.889 42.874 264.721 42.648 268.102 40.159 272.384 47.173 270.356 53.055 263.369 49.435 239.477 51.924 239.703 44.458 239.703 44.458" style="fill-opacity:1;fill-rule:evenodd;fill:#fff;stroke:none"/><polygon points="242.858 43.779 239.252 47.852 239.252 53.96 256.156 53.508 265.397 52.603 272.384 54.865 275.991 52.603 268.327 41.064 269.905 48.757 265.848 45.363 264.27 46.72 259.537 45.363 250.972 49.435 251.874 43.779 241.506 48.53 242.858 43.779 242.858 43.779" style="fill-opacity:1;fill-rule:evenodd;fill:#a9a9a9;stroke:none"/><polygon points="271.257 120.93 295.825 135.41 302.587 152.378 301.91 177.266 293.346 201.927 276.441 236.09 280.724 190.84 279.822 164.369 273.06 144.686 272.159 160.976 267.876 176.361 256.832 195.139 253.451 177.266 241.506 149.89 228.884 133.6 239.026 139.708 252.55 158.487 260.213 179.754 267.651 148.532 264.045 130.885 270.807 133.6 279.822 147.401 285.682 168.668 285.682 204.415 294.247 180.659 294.923 155.772 289.063 136.315 271.257 120.93 271.257 120.93" style="fill-opacity:1;fill-rule:evenodd;fill:#000;stroke:none"/><polygon points="218.291 108.034 208.148 104.64 201.386 113.237 201.386 118.215 207.246 138.803 215.811 160.976 223.249 183.148 225.503 209.619 228.433 191.972 224.602 170.704 213.107 143.555 205.443 120.93 210.177 112.785 216.037 120.025 228.884 146.043 237.674 173.646 237.223 201.474 232.716 226.588 224.602 244.461 212.656 259.394 207.246 255.548 193.948 241.52 186.736 236.09 179.974 242.425 192.371 247.403 212.205 266.634 220.319 256.452 225.052 251.249 239.026 264.145 246.69 256 256.382 245.366 259.086 254.643 262.467 264.145 266.975 261.656 269.905 255.548 280.949 248.308 278.921 243.783 265.397 254.416 258.185 239.936 259.312 229.529 251.874 243.783 238.125 256.452 227.081 245.819 235.646 228.398 240.83 203.51 242.407 180.207 239.026 160.976 228.433 132.016 220.319 125.907 218.741 118.667 213.107 110.975 218.291 108.034 218.291 108.034" style="fill-opacity:1;fill-rule:evenodd;fill:#000;stroke:none"/><polygon points="240.379 117.536 222.122 106.676 216.938 108.486 229.785 116.179 237.223 118.667 232.716 121.382 239.477 123.418 219.868 126.812 226.405 132.016 236.998 127.717 239.026 130.658 251.874 129.301 253.902 122.061 249.62 126.36 239.477 126.812 243.309 124.323 240.379 117.536 240.379 117.536" style="fill-opacity:1;fill-rule:evenodd;fill:#000;stroke:none"/><polygon points="241.055 116.179 248.267 114.821 253.001 117.084 267.876 113.237 274.187 116.631 272.61 122.061 274.187 129.301 270.356 135.862 259.312 130.658 250.071 128.17 253.902 125.228 259.762 125.907 270.356 132.468 267.426 122.061 270.356 118.215 265.848 115.726 253.902 120.025 249.62 117.084 241.055 116.179 241.055 116.179" style="fill-opacity:1;fill-rule:evenodd;fill:#000;stroke:none"/><polygon points="296.726 141.745 315.434 166.858 329.408 193.329 327.38 203.284 309.574 226.588 295.825 236.769 294.698 252.154 284.781 265.502 282.301 261.204 278.921 248.308 274.638 237.674 282.301 242.878 286.584 254.643 290.866 244.461 291.542 234.28 298.755 221.158 305.742 189.03 306.869 205.773 303.037 223.646 315.885 205.773 323.548 195.592 319.265 180.659 308.221 168.216 296.726 141.745 296.726 141.745" style="fill-opacity:1;fill-rule:evenodd;fill:#000;stroke:none"/><polygon points="205.894 111.88 196.653 119.12 175.466 120.93 162.619 127.265 158.337 136.315 155.407 154.188 153.829 177.266 150.448 193.782 140.982 194.234 148.194 203.51 148.645 217.99 151.575 238.126 142.334 240.615 131.29 231.791 133.769 238.579 143.912 247.855 149.547 250.118 161.492 246.724 181.327 243.33 189.891 236.09 192.371 221.158 201.612 202.379 206.796 177.492 204.316 166.406 197.555 152.378 200.034 175.908 197.104 195.592 186.06 215.954 187.187 229.303 177.946 239.484 167.803 238.126 162.168 241.068 154.956 230.434 154.28 214.597 150.899 199.438 158.788 198.533 172.311 208.714 168.705 199.438 158.111 189.483 161.041 155.772 163.07 137.446 168.93 132.016 182.679 137.898 175.466 125.907 185.158 123.418 197.555 124.323 202.964 119.572 205.894 111.88 205.894 111.88" style="fill-opacity:1;fill-rule:evenodd;fill:#000;stroke:none"/><polygon points="106.722 182.696 93.875 189.03 93.875 201.022 99.059 204.868 99.961 215.954 104.468 221.836 107.173 228.85 109.202 236.543 128.585 239.031 138.953 231.791 140.531 225.004 136.474 220.253 138.953 214.144 138.502 205.773 131.29 201.474 122.725 205.32 111.456 203.284 122.725 210.524 133.769 207.357 135.122 210.524 132.868 219.348 132.642 222.741 135.122 225.23 133.318 231.339 120.246 232.923 112.132 226.588 113.935 224.099 103.341 215.049 103.792 205.773 99.059 198.533 98.158 191.293 106.722 184.732 106.722 182.696 106.722 182.696" style="fill-opacity:1;fill-rule:evenodd;fill:#000;stroke:none"/><polygon points="124.528 180.207 123.176 189.483 111.906 191.067 111.005 160.297 110.779 146.948 117.766 146.043 120.697 148.532 122.725 170.704 124.979 177.492 126.331 166.632 125.43 149.663 121.147 144.233 114.386 142.65 110.554 143.781 105.595 148.08 108.976 188.125 106.046 192.198 121.373 194.234 129.938 191.972 124.528 180.207 124.528 180.207" style="fill-opacity:1;fill-rule:evenodd;fill:#000;stroke:none"/><polygon points="128.134 164.822 131.741 169.799 130.388 177.266 133.769 184.506 140.08 186.542 141.883 195.139 140.531 204.868 137.15 189.483 130.163 184.958 127.233 171.157 124.754 165.048 128.134 164.822 128.134 164.822" style="fill-opacity:1;fill-rule:evenodd;fill:#000;stroke:none"/><polygon points="255.255 117.084 259.762 104.187 266.299 94.911 274.638 89.707 281.4 78.621 283.654 56.901 280.273 42.874 269.229 29.978 275.991 42.874 278.921 53.508 279.371 70.024 274.638 79.526 268.327 88.35 259.086 88.35 245.788 84.504 229.785 70.024 237.674 82.468 241.506 87.671 257.283 93.554 258.635 96.947 253.902 105.997 251.874 117.084 255.255 117.084 255.255 117.084" style="fill-opacity:1;fill-rule:evenodd;fill:#000;stroke:none"/><polygon points="222.122 108.486 220.319 91.517 214.008 70.024 205.894 59.39 197.78 56.901 193.948 49.209 193.723 43.779 196.653 38.123 202.513 36.087 206.796 37.897 206.12 42.422 202.964 39.933 198.682 40.159 197.555 44.458 198.231 50.567 203.866 56.449 208.824 56.901 211.98 56.901 211.078 61.653 217.389 71.381 223.7 89.707 225.052 110.296 222.122 108.486 222.122 108.486" style="fill-opacity:1;fill-rule:evenodd;fill:#000;stroke:none"/><polygon points="208.824 44.91 211.98 53.96 219.868 52.15 213.557 46.72 211.98 33.824 214.459 22.285 220.319 11.652 226.405 6.674 238.576 4.412 233.166 1.018 222.573 .113 210.177 3.054 205.894 7.353 197.555 9.616 192.371 14.367 189.441 21.607 189.441 39.028 193.948 44.458 190.568 34.729 193.272 19.797 200.485 11.652 198.231 18.892 206.796 10.521 214.008 5.769 224.602 3.507 212.656 11.652 204.993 21.607 204.316 29.525 210.627 21.607 208.599 33.372 208.824 44.91 208.824 44.91" style="fill-opacity:1;fill-rule:evenodd;fill:#000;stroke:none"/><polygon points="233.166 3.959 244.887 1.018 254.353 1.923 259.312 6.222 262.918 18.439 256.382 8.258 252.55 4.412 244.21 3.959 251.874 7.353 241.055 7.353 233.166 3.959 233.166 3.959" style="fill-opacity:1;fill-rule:evenodd;fill:#000;stroke:none"/><polygon points="232.941 38.575 235.42 36.539 237.674 39.028 241.055 37.897 239.703 34.503 236.773 31.335 231.589 31.788 230.462 35.182 232.941 38.575 232.941 38.575" style="fill-opacity:1;fill-rule:evenodd;fill:#000;stroke:none"/><polygon points="253.001 11.652 253.451 18.213 259.312 21.833 266.299 22.285 272.384 20.023 275.089 21.833 273.06 27.489 268.778 31.788 267.876 39.028 260.664 41.969 253.902 38.575 254.804 34.729 258.635 37.218 264.045 36.313 266.299 29.525 270.356 24.095 261.566 25.905 252.775 22.512 249.169 16.856 253.001 11.652 253.001 11.652" style="fill-opacity:1;fill-rule:evenodd;fill:#000;stroke:none"/><polygon points="250.521 56.675 259.988 61.426 268.553 63.01 274.864 59.164 273.06 64.82 269.229 67.761 260.889 66.404 255.705 63.463 250.521 56.675 250.521 56.675" style="fill-opacity:1;fill-rule:evenodd;fill:#000;stroke:none"/><polygon points="281.851 249.213 287.035 273.195 285.908 296.046 272.159 337.676 259.312 388.808 256.832 420.709 259.312 451.479 262.467 480.891 249.62 479.307 227.081 482.475 237.9 475.235 256.156 475.235 253.677 448.99 252.775 425.234 249.62 434.51 247.141 458.719 244.436 434.962 248.042 413.921 243.985 395.369 252.775 391.749 257.283 364.373 264.946 319.576 268.102 282.019 269.68 302.155 268.102 334.508 279.822 296.498 283.879 272.742 279.371 249.213 281.851 249.213 281.851 249.213" style="fill-opacity:1;fill-rule:evenodd;fill:#000;stroke:none"/><polygon points="174.79 241.294 173.663 264.597 164.422 320.707 164.422 354.644 169.606 382.02 176.368 408.718 190.117 404.645 193.272 423.876 194.85 448.537 190.117 480.891 197.329 482.927 214.234 484.963 227.081 482.022 230.011 432.247 225.954 398.989 233.392 350.572 241.506 317.766 231.814 308.716 225.954 337.676 223.024 363.92 222.348 415.505 222.348 469.578 216.262 480.891 198.907 478.402 197.329 471.615 200.936 409.849 203.415 432.474 206.57 469.126 208.599 421.614 208.148 388.808 201.386 385.188 200.485 351.024 204.993 289.711 196.202 336.771 192.145 311.431 189.215 275.457 199.809 263.919 202.964 257.81 196.878 263.466 189.215 267.765 189.215 256.905 190.117 246.045 184.933 253.738 184.031 271.837 184.031 293.331 188.088 342.427 192.371 379.532 192.371 397.631 184.031 400.573 177.946 402.609 173.213 379.532 168.029 341.296 171.635 298.987 178.396 263.014 180.876 239.258 174.79 241.294 174.79 241.294" style="fill-opacity:1;fill-rule:evenodd;fill:#000;stroke:none"/><polygon points="126.557 234.733 131.29 415.279 124.979 413.469 123.627 256.905 116.865 246.95 118.893 412.338 114.836 414.374 111.23 231.113 126.557 234.733 126.557 234.733" style="fill-opacity:1;fill-rule:evenodd;fill:#000;stroke:none"/><polygon points="113.259 455.099 104.018 442.202 101.989 432.021 103.116 419.125 106.046 416.41 115.738 412.338 128.134 411.433 138.953 416.41 145.039 426.365 143.461 436.546 137.375 446.501 143.01 455.099 133.318 453.515 132.191 440.166 125.655 444.917 125.655 455.099 120.922 451.026 120.922 441.297 127.233 438.13 127.233 423.197 131.741 431.342 131.29 434.962 137.826 434.962 139.855 423.65 132.191 417.994 121.373 415.053 111.23 417.089 107.173 422.745 108.075 429.985 106.046 436.546 110.779 445.822 112.808 439.261 116.865 451.479 113.259 455.099 113.259 455.099" style="fill-opacity:1;fill-rule:evenodd;fill:#000;stroke:none"/><polygon points="138.953 453.062 154.73 458.719 164.422 470.031 165.549 489.715 159.464 506.683 153.153 507.814 122.5 508.267 86.663 508.267 72.238 509.851 52.178 508.719 26.258 507.136 22.652 503.063 26.258 497.859 43.613 498.991 52.178 497.407 62.546 485.416 74.266 480.438 95.453 479.307 68.631 487 61.419 493.334 58.489 498.538 36.401 504.647 67.73 503.968 82.606 496.954 103.567 487 90.72 496.954 83.056 503.516 98.834 503.063 107.173 495.371 121.373 484.511 116.865 493.334 112.357 503.063 126.557 499.443 136.248 488.583 135.798 481.343 127.233 475.687 127.233 470.031 130.614 462.338 132.642 467.09 130.163 473.198 136.925 476.818 143.01 482.927 143.01 493.334 135.347 501.479 150.673 493.334 153.153 480.438 147.518 476.14 140.982 472.067 143.461 465.958 136.925 459.85 146.616 464.375 148.194 471.162 154.28 474.782 157.435 484.963 154.73 499.443 161.943 485.416 161.041 469.578 152.702 461.886 138.953 453.062 138.953 453.062" style="fill-opacity:1;fill-rule:evenodd;fill:#000;stroke:none"/><polygon points="114.386 451.479 110.779 454.194 110.779 463.922 107.624 469.126 97.481 470.031 90.72 474.103 81.479 480.891 86.663 480.891 96.805 473.198 107.173 472.746 115.738 469.578 117.316 462.338 112.808 456.682 114.386 451.479 114.386 451.479" style="fill-opacity:1;fill-rule:evenodd;fill:#000;stroke:none"/><polygon points="214.234 493.787 208.148 482.475 195.752 482.022 186.511 493.334 174.339 499.443 173.663 507.136 182.003 510.756 205.443 510.303 199.358 501.932 184.933 501.479 178.396 504.647 178.396 499.896 189.666 495.371 198.456 487 204.091 486.547 214.234 493.787 214.234 493.787" style="fill-opacity:1;fill-rule:evenodd;fill:#000;stroke:none"/><polygon points="212.656 491.298 220.319 487.678 218.291 481.343 222.348 479.307 223.925 484.963 229.109 490.167 233.166 503.968 226.63 505.099 225.954 509.172 204.993 511.887 218.291 508.267 218.291 499.443 222.348 502.611 227.982 501.479 225.503 489.036 220.995 490.62 214.684 493.787 212.656 491.298 212.656 491.298" style="fill-opacity:1;fill-rule:evenodd;fill:#000;stroke:none"/><polygon points="232.265 480.438 225.052 488.583 229.109 492.203 232.265 487.678 245.563 490.167 253.677 478.855 250.071 478.855 241.957 485.416 234.744 484.963 235.646 480.438 232.265 480.438 232.265 480.438" style="fill-opacity:1;fill-rule:evenodd;fill:#000;stroke:none"/><polygon points="257.283 477.723 268.553 488.131 289.063 493.787 311.602 494.239 314.758 499.896 302.812 508.267 274.638 510.756 261.34 505.099 257.283 509.172 230.011 506.683 230.011 501.479 255.255 503.968 260.439 501.479 278.244 507.136 299.431 505.099 300.783 499.896 306.418 496.954 287.485 496.954 268.102 492.882 257.283 477.723 257.283 477.723" style="fill-opacity:1;fill-rule:evenodd;fill:#000;stroke:none"/><polygon points="147.518 201.248 150.448 213.465 147.067 220.705 147.067 226.814 143.686 232.47 136.699 232.47 137.15 227.945 142.785 229.076 144.813 222.515 144.137 217.085 142.785 207.809 145.715 213.465 147.293 209.845 147.518 201.248 147.518 201.248" style="fill-opacity:1;fill-rule:evenodd;fill:#000;stroke:none"/><polygon points="250.296 41.064 239.703 43.553 235.871 53.508 240.153 56.901 254.353 54.639 262.693 55.996 265.397 54.413 269.229 57.128 276.216 56.223 277.343 53.055 274.187 44.684 268.327 40.159 273.511 52.603 271.032 53.281 266.073 47.173 264.721 50.567 261.34 51.471 260.213 46.72 258.41 49.888 250.521 51.698 251.423 46.72 246.014 49.662 239.703 54.186 239.703 49.209 243.76 44.684 250.296 41.064 250.296 41.064" style="fill-opacity:1;fill-rule:evenodd;fill:#000;stroke:none"/><polygon points="245.563 20.023 237.9 15.498 229.56 17.308 224.827 18.892 223.7 23.417 224.827 27.942 231.138 21.154 239.928 18.665 245.563 20.023 245.563 20.023" style="fill-opacity:1;fill-rule:evenodd;fill:#a9a9a9;stroke:none"/><polygon points="226.179 27.489 226.63 22.738 231.138 18.892 239.252 17.308 246.464 20.249 234.969 20.702 230.462 24.095 226.179 27.489 226.179 27.489" style="fill-opacity:1;fill-rule:evenodd;fill:#000;stroke:none"/><polygon points="250.747 138.577 250.747 142.197 252.775 143.781 254.804 139.708 250.747 138.577 250.747 138.577" style="fill-opacity:1;fill-rule:evenodd;fill:#000;stroke:none"/><polygon points="255.931 154.641 254.804 159.166 256.832 161.202 259.086 157.808 255.931 154.641 255.931 154.641" style="fill-opacity:1;fill-rule:evenodd;fill:#000;stroke:none"/><polygon points="266.073 211.655 273.737 209.619 268.102 215.275 272.384 218.443 268.102 220.479 270.807 231.339 264.045 219.574 266.073 211.655 266.073 211.655" style="fill-opacity:1;fill-rule:evenodd;fill:#000;stroke:none"/><polygon points="253.902 215.954 253.902 211.882 258.41 209.619 260.439 212.334 258.861 218.895 253.902 215.954 253.902 215.954" style="fill-opacity:1;fill-rule:evenodd;fill:khaki;stroke:none"/><polygon points="253.902 211.882 252.775 216.859 255.931 220.027 259.537 219.574 260.889 216.859 260.439 211.882 257.058 217.312 253.902 211.882 253.902 211.882" style="fill-opacity:1;fill-rule:evenodd;fill:#000;stroke:none"/></svg>